<svg width="113" height="113" viewBox="0 0 113 113" fill="none" xmlns="http://www.w3.org/2000/svg">
<path d="M19.2383 23.5416C21.4794 21.6348 29.2623 18.8333 37.6667 18.8333C46.071 18.8333 53.8539 21.6348 56.0951 23.5416H65.9167C65.9167 12.9714 46.5136 9.41663 37.6667 9.41663C28.8197 9.41663 9.41667 12.9714 9.41667 23.5416V80.0416C9.41667 90.6118 28.8197 94.1666 37.6667 94.1666C39.018 94.1666 40.6376 94.0725 42.375 93.8935V84.4392C40.8448 84.6181 39.2769 84.75 37.6667 84.75C28.6455 84.75 20.3306 81.5247 18.8333 79.6367V76.3738C25.0483 78.9917 32.8877 80.0416 37.6667 80.0416C39.0227 80.0416 40.6376 79.9475 42.375 79.7685V70.3142C40.8448 70.4931 39.2769 70.625 37.6667 70.625C28.5466 70.625 20.2035 67.3433 18.8333 65.4552V62.2441C25.0483 64.8667 32.8877 65.9166 37.6667 65.9166C39.0227 65.9166 40.6376 65.8225 42.375 65.6435V56.1892C40.8448 56.3681 39.2769 56.5 37.6667 56.5C28.5466 56.5 20.2035 53.2183 18.8333 51.3302V48.1191C25.0483 50.7417 32.8877 51.7916 37.6667 51.7916C39.0227 51.7916 40.6376 51.6975 42.375 51.5185V42.0642C40.8448 42.2431 39.2769 42.375 37.6667 42.375C28.5466 42.375 20.2035 39.0933 18.8333 37.2052V33.9988C25.0483 36.6167 32.8877 37.6666 37.6667 37.6666C39.0227 37.6666 40.6376 37.5725 42.375 37.3935V27.9486C40.8448 28.1228 39.2769 28.25 37.6667 28.25C29.267 28.25 21.4794 25.4532 19.2383 23.5416Z" fill="#FFD700"/>
<path fill-rule="evenodd" clip-rule="evenodd" d="M75.3333 32.9584C66.4864 32.9584 47.0833 36.5132 47.0833 47.0834V89.4584C47.0833 100.029 66.4864 103.583 75.3333 103.583C84.1803 103.583 103.583 100.029 103.583 89.4584V47.0834C103.583 36.5132 84.1803 32.9584 75.3333 32.9584ZM94.1667 60.747C92.7965 62.635 84.4534 65.9167 75.3333 65.9167C66.2133 65.9167 57.8701 62.635 56.5 60.747V57.5359C62.715 60.1584 70.5544 61.2084 75.3333 61.2084C80.1123 61.2084 87.9517 60.1584 94.1667 57.5406V60.747ZM75.3333 80.0417C84.4534 80.0417 92.7965 76.76 94.1667 74.872V71.6656C87.9517 74.2834 80.1123 75.3334 75.3333 75.3334C70.5544 75.3334 62.715 74.2834 56.5 71.6609V74.872C57.8701 76.76 66.2133 80.0417 75.3333 80.0417ZM75.3333 42.375C83.7377 42.375 91.5206 45.1765 93.7617 47.0834C91.5206 48.995 83.733 51.7917 75.3333 51.7917C66.9337 51.7917 59.1461 48.995 56.9049 47.0834C59.1461 45.1765 66.929 42.375 75.3333 42.375ZM56.5 89.0535C57.9972 90.9415 66.3122 94.1667 75.3333 94.1667C84.3545 94.1667 92.6694 90.9415 94.1667 89.0535V85.7906C87.9517 88.4084 80.1123 89.4584 75.3333 89.4584C70.5544 89.4584 62.715 88.4084 56.5 85.7906V89.0535Z" fill="#FFD700"/>
</svg>
